<svg width="16" height="12" viewBox="0 0 16 12" fill="none" xmlns="http://www.w3.org/2000/svg">
<path d="M15.1682 0.804993C14.5354 0.176982 13.5159 0.176982 12.8875 0.804993L5.82486 7.87123L3.17873 5.22891C2.54589 4.6009 1.52643 4.6009 0.898048 5.22891C0.269661 5.86138 0.269661 6.88022 0.898048 7.50823L4.53132 11.136C4.57478 11.1928 4.62268 11.2485 4.67505 11.3008C5.06055 11.6861 5.592 11.8364 6.08892 11.7518C6.41425 11.7005 6.72733 11.5502 6.97691 11.3008C7.02927 11.2485 7.07718 11.1928 7.12063 11.1349L15.1682 3.08432C15.7966 2.45185 15.7966 1.433 15.1682 0.804993Z" fill="#D7D7D7"/>
</svg>
