<svg width="43" height="43" viewBox="0 0 43 43" fill="none" xmlns="http://www.w3.org/2000/svg">
<g filter="url(#filter0_d_2096_36729)">
<rect x="4.23535" y="2.11133" width="34.6503" height="34.6296" rx="6" fill="white"/>
</g>
<path d="M29.1682 14.805C28.5354 14.177 27.5159 14.177 26.8875 14.805L19.8249 21.8712L17.1787 19.2289C16.5459 18.6009 15.5264 18.6009 14.898 19.2289C14.2697 19.8614 14.2697 20.8802 14.898 21.5082L18.5313 25.136C18.5748 25.1928 18.6227 25.2485 18.675 25.3008C19.0605 25.6861 19.592 25.8364 20.0889 25.7518C20.4143 25.7005 20.7273 25.5502 20.9769 25.3008C21.0293 25.2485 21.0772 25.1928 21.1206 25.1349L29.1682 17.0843C29.7966 16.4519 29.7966 15.433 29.1682 14.805Z" fill="#D7D7D7"/>
<defs>
<filter id="filter0_d_2096_36729" x="0.235352" y="0.111328" width="42.6504" height="42.6289" filterUnits="userSpaceOnUse" color-interpolation-filters="sRGB">
<feFlood flood-opacity="0" result="BackgroundImageFix"/>
<feColorMatrix in="SourceAlpha" type="matrix" values="0 0 0 0 0 0 0 0 0 0 0 0 0 0 0 0 0 0 127 0" result="hardAlpha"/>
<feOffset dy="2"/>
<feGaussianBlur stdDeviation="2"/>
<feComposite in2="hardAlpha" operator="out"/>
<feColorMatrix type="matrix" values="0 0 0 0 0 0 0 0 0 0 0 0 0 0 0 0 0 0 0.25 0"/>
<feBlend mode="normal" in2="BackgroundImageFix" result="effect1_dropShadow_2096_36729"/>
<feBlend mode="normal" in="SourceGraphic" in2="effect1_dropShadow_2096_36729" result="shape"/>
</filter>
</defs>
</svg>
