<svg width="16" height="12" viewBox="0 0 16 12" fill="none" xmlns="http://www.w3.org/2000/svg">
<path d="M15.1677 0.804993C14.5349 0.176982 13.5154 0.176982 12.887 0.804993L5.82437 7.87123L3.17824 5.22891C2.5454 4.6009 1.52595 4.6009 0.897559 5.22891C0.269173 5.86138 0.269173 6.88022 0.897559 7.50823L4.53084 11.136C4.57429 11.1928 4.6222 11.2485 4.67456 11.3008C5.06006 11.6861 5.59152 11.8364 6.08843 11.7518C6.41377 11.7005 6.72685 11.5502 6.97642 11.3008C7.02878 11.2485 7.07669 11.1928 7.12014 11.1349L15.1677 3.08432C15.7961 2.45185 15.7961 1.433 15.1677 0.804993Z" fill="white"/>
</svg>
