<svg width="43" height="43" viewBox="0 0 43 43" fill="none" xmlns="http://www.w3.org/2000/svg">
<g filter="url(#filter0_d_2096_36780)">
<rect x="4.23486" y="2.11133" width="34.6503" height="34.6296" rx="6" fill="#FFC524"/>
</g>
<path d="M29.1677 14.805C28.5349 14.177 27.5154 14.177 26.887 14.805L19.8244 21.8712L17.1782 19.2289C16.5454 18.6009 15.5259 18.6009 14.8976 19.2289C14.2692 19.8614 14.2692 20.8802 14.8976 21.5082L18.5308 25.136C18.5743 25.1928 18.6222 25.2485 18.6746 25.3008C19.0601 25.6861 19.5915 25.8364 20.0884 25.7518C20.4138 25.7005 20.7268 25.5502 20.9764 25.3008C21.0288 25.2485 21.0767 25.1928 21.1201 25.1349L29.1677 17.0843C29.7961 16.4519 29.7961 15.433 29.1677 14.805Z" fill="white"/>
<defs>
<filter id="filter0_d_2096_36780" x="0.234863" y="0.111328" width="42.6504" height="42.6289" filterUnits="userSpaceOnUse" color-interpolation-filters="sRGB">
<feFlood flood-opacity="0" result="BackgroundImageFix"/>
<feColorMatrix in="SourceAlpha" type="matrix" values="0 0 0 0 0 0 0 0 0 0 0 0 0 0 0 0 0 0 127 0" result="hardAlpha"/>
<feOffset dy="2"/>
<feGaussianBlur stdDeviation="2"/>
<feComposite in2="hardAlpha" operator="out"/>
<feColorMatrix type="matrix" values="0 0 0 0 0 0 0 0 0 0 0 0 0 0 0 0 0 0 0.25 0"/>
<feBlend mode="normal" in2="BackgroundImageFix" result="effect1_dropShadow_2096_36780"/>
<feBlend mode="normal" in="SourceGraphic" in2="effect1_dropShadow_2096_36780" result="shape"/>
</filter>
</defs>
</svg>
