<svg width="13" height="14" viewBox="0 0 13 14" fill="none" xmlns="http://www.w3.org/2000/svg">
<path d="M8.41875 6.33594L7.85625 6.91094C7.40625 7.36094 7.125 7.74219 7.125 8.67969H5.875V8.36719C5.875 7.67344 6.15625 7.04844 6.60625 6.59844L7.38125 5.81094C7.6125 5.58594 7.75 5.27344 7.75 4.92969C7.75 4.59817 7.6183 4.28022 7.38388 4.0458C7.14946 3.81138 6.83152 3.67969 6.5 3.67969C6.16848 3.67969 5.85054 3.81138 5.61612 4.0458C5.3817 4.28022 5.25 4.59817 5.25 4.92969H4C4 4.26665 4.26339 3.63076 4.73223 3.16192C5.20107 2.69308 5.83696 2.42969 6.5 2.42969C7.16304 2.42969 7.79893 2.69308 8.26777 3.16192C8.73661 3.63076 9 4.26665 9 4.92969C8.9991 5.45671 8.79021 5.96208 8.41875 6.33594ZM7.125 11.1797H5.875V9.92969H7.125V11.1797ZM6.5 0.554688C5.67924 0.554687 4.86651 0.716349 4.10823 1.03044C3.34994 1.34453 2.66095 1.8049 2.08058 2.38527C0.90848 3.55737 0.25 5.14708 0.25 6.80469C0.25 8.46229 0.90848 10.052 2.08058 11.2241C2.66095 11.8045 3.34994 12.2648 4.10823 12.5789C4.86651 12.893 5.67924 13.0547 6.5 13.0547C8.1576 13.0547 9.74732 12.3962 10.9194 11.2241C12.0915 10.052 12.75 8.46229 12.75 6.80469C12.75 3.34844 9.9375 0.554688 6.5 0.554688Z" fill="#7A5F1B"/>
</svg>
