<svg width="20" height="22" viewBox="0 0 20 22" fill="none" xmlns="http://www.w3.org/2000/svg">
<path d="M13.6844 1.5663C12.7489 0.556235 11.4422 0 9.99991 0C8.54995 0 7.23893 0.552869 6.3077 1.55669C5.36638 2.57156 4.90774 3.95085 5.01543 5.44023C5.22889 8.37862 7.46488 10.7689 9.99991 10.7689C12.5349 10.7689 14.7671 8.3791 14.9839 5.4412C15.093 3.96527 14.6315 2.58887 13.6844 1.5663Z" fill="white"/>
<path d="M18.4613 21.5372H1.53869C1.31719 21.54 1.09783 21.4935 0.896579 21.4009C0.695324 21.3084 0.517233 21.1721 0.375265 21.0021C0.0627732 20.6285 -0.0631848 20.1184 0.0300818 19.6026C0.43584 17.3517 1.70215 15.4609 3.69248 14.1335C5.4607 12.9552 7.70054 12.3066 10 12.3066C12.2995 12.3066 14.5393 12.9557 16.3075 14.1335C18.2978 15.4604 19.5642 17.3512 19.9699 19.6021C20.0632 20.118 19.9372 20.628 19.6247 21.0016C19.4828 21.1717 19.3047 21.3081 19.1035 21.4007C18.9022 21.4934 18.6828 21.54 18.4613 21.5372Z" fill="white"/>
</svg>
