<svg width="21" height="21" viewBox="0 0 21 21" fill="none" xmlns="http://www.w3.org/2000/svg">
<path d="M1.82768 13.4152H18.3813M1.82768 6.79376H18.3813M10.1045 19.209C15.1328 19.209 19.209 15.1328 19.209 10.1045C19.209 5.07622 15.1328 1 10.1045 1C5.07622 1 1 5.07622 1 10.1045C1 15.1328 5.07622 19.209 10.1045 19.209ZM10.1045 19.209C12.5875 19.209 13.4152 15.0706 13.4152 10.1045C13.4152 5.1384 12.5875 1 10.1045 1C7.62144 1 6.79376 5.1384 6.79376 10.1045C6.79376 15.0706 7.62144 19.209 10.1045 19.209Z" stroke="#1A4A82" stroke-width="2"/>
</svg>
