<svg width="20" height="25" viewBox="0 0 20 25" fill="none" xmlns="http://www.w3.org/2000/svg">
<path d="M10.1169 24.2065L3.12548 15.961C3.08578 15.9137 2.83689 15.5868 2.83689 15.5868C1.6425 14.0136 0.99721 12.0921 1.00001 10.1169C1.00001 7.69891 1.96053 5.38001 3.67027 3.67026C5.38002 1.96052 7.69892 1 10.1169 1C12.5348 1 14.8537 1.96052 16.5635 3.67026C18.2732 5.38001 19.2337 7.69891 19.2337 10.1169C19.2367 12.0912 18.5918 14.0121 17.3981 15.5847L17.3968 15.5868C17.3968 15.5868 17.1482 15.9137 17.1111 15.9576L10.1169 24.2065ZM4.15983 14.5883C4.16066 14.5888 4.35327 14.8437 4.39736 14.8986L10.1169 21.6438L15.8439 14.889C15.8803 14.8433 16.0746 14.5866 16.075 14.5859C17.0507 13.3005 17.578 11.7306 17.5761 10.1169C17.5761 8.13854 16.7902 6.24125 15.3913 4.84237C13.9925 3.44349 12.0952 2.65761 10.1169 2.65761C8.13855 2.65761 6.24126 3.44349 4.84238 4.84237C3.4435 6.24125 2.65762 8.13854 2.65762 10.1169C2.65578 11.7315 3.18348 13.3022 4.15983 14.5883Z" fill="#1A4A82" stroke="#1A4A82" stroke-width="0.5"/>
<path d="M10.144 14.2881C9.32442 14.2881 8.52321 14.045 7.84173 13.5897C7.16025 13.1343 6.6291 12.4871 6.31545 11.7299C6.0018 10.9727 5.91973 10.1394 6.07963 9.33557C6.23953 8.53171 6.63421 7.79331 7.21376 7.21376C7.79331 6.63421 8.53171 6.23953 9.33557 6.07963C10.1394 5.91973 10.9727 6.0018 11.7299 6.31545C12.4871 6.6291 13.1343 7.16025 13.5897 7.84173C14.045 8.52321 14.2881 9.32442 14.2881 10.144C14.2868 11.2427 13.8498 12.296 13.0729 13.0729C12.296 13.8498 11.2427 14.2868 10.144 14.2881V14.2881ZM10.144 7.65761C9.65226 7.65761 9.17154 7.80344 8.76265 8.07665C8.35376 8.34986 8.03507 8.73818 7.84688 9.19252C7.65869 9.64685 7.60945 10.1468 7.70539 10.6291C7.80133 11.1114 8.03813 11.5545 8.38587 11.9022C8.7336 12.2499 9.17663 12.4867 9.65895 12.5827C10.1413 12.6786 10.6412 12.6294 11.0955 12.4412C11.5499 12.253 11.9382 11.9343 12.2114 11.5254C12.4846 11.1165 12.6304 10.6358 12.6304 10.144C12.6297 9.48481 12.3675 8.8528 11.9014 8.38667C11.4353 7.92053 10.8032 7.65834 10.144 7.65761Z" fill="#1A4A82" stroke="#1A4A82" stroke-width="0.5"/>
</svg>
