<svg width="27" height="27" viewBox="0 0 27 27" fill="none" xmlns="http://www.w3.org/2000/svg">
<path d="M13.2612 14.9189C12.4416 14.9189 11.6404 14.6759 10.9589 14.2205C10.2774 13.7652 9.74629 13.118 9.43263 12.3607C9.11898 11.6035 9.03692 10.7703 9.19682 9.96643C9.35671 9.16257 9.75139 8.42417 10.3309 7.84462C10.9105 7.26507 11.6489 6.87039 12.4528 6.71049C13.2566 6.55059 14.0898 6.63265 14.8471 6.94631C15.6043 7.25996 16.2515 7.79111 16.7068 8.47259C17.1622 9.15407 17.4052 9.95528 17.4052 10.7749C17.404 11.8736 16.967 12.9269 16.1901 13.7038C15.4132 14.4807 14.3599 14.9177 13.2612 14.9189V14.9189ZM13.2612 8.28847C12.7694 8.28847 12.2887 8.4343 11.8798 8.70751C11.4709 8.98072 11.1523 9.36904 10.9641 9.82338C10.7759 10.2777 10.7266 10.7776 10.8226 11.26C10.9185 11.7423 11.1553 12.1853 11.5031 12.533C11.8508 12.8808 12.2938 13.1176 12.7761 13.2135C13.2585 13.3095 13.7584 13.2602 14.2127 13.072C14.6671 12.8838 15.0554 12.5652 15.3286 12.1563C15.6018 11.7474 15.7476 11.2667 15.7476 10.7749C15.7469 10.1157 15.4847 9.48366 15.0186 9.01752C14.5524 8.55139 13.9204 8.2892 13.2612 8.28847Z" fill="#1A4A82" stroke="#1A4A82" stroke-width="0.5"/>
<path d="M13.2614 24.8647L6.27001 16.6192C6.23031 16.5719 5.98142 16.245 5.98142 16.245C4.78703 14.6718 4.14174 12.7503 4.14454 10.7751C4.14454 8.35712 5.10506 6.03821 6.8148 4.32847C8.52455 2.61873 10.8435 1.6582 13.2614 1.6582C15.6793 1.6582 17.9982 2.61873 19.708 4.32847C21.4177 6.03821 22.3782 8.35712 22.3782 10.7751C22.3812 12.7495 21.7364 14.6703 20.5426 16.2429L20.5414 16.245C20.5414 16.245 20.2927 16.5719 20.2557 16.6158L13.2614 24.8647ZM7.30436 15.2465C7.30519 15.247 7.4978 15.5019 7.54189 15.5568L13.2614 22.302L18.9884 15.5472C19.0248 15.5015 19.2191 15.2448 19.2195 15.2441C20.1952 13.9587 20.7225 12.3888 20.7206 10.7751C20.7206 8.79674 19.9348 6.89945 18.5359 5.50058C17.137 4.1017 15.2397 3.31581 13.2614 3.31581C11.2831 3.31581 9.38579 4.1017 7.98691 5.50058C6.58803 6.89945 5.80215 8.79674 5.80215 10.7751C5.80032 12.3897 6.32801 13.9604 7.30436 15.2465Z" fill="#1A4A82" stroke="#1A4A82" stroke-width="0.5"/>
</svg>
