<svg width="20" height="20" viewBox="0 0 20 20" fill="none" xmlns="http://www.w3.org/2000/svg">
<path d="M10 20C11.9778 20 13.9112 19.4135 15.5557 18.3147C17.2002 17.2159 18.4819 15.6541 19.2388 13.8268C19.9957 11.9996 20.1937 9.98891 19.8078 8.0491C19.422 6.10929 18.4696 4.32746 17.0711 2.92894C15.6725 1.53041 13.8907 0.578004 11.9509 0.192152C10.0111 -0.1937 8.00042 0.00433284 6.17316 0.761209C4.3459 1.51809 2.78412 2.79981 1.6853 4.4443C0.58649 6.08879 0 8.02219 0 10C0 12.6522 1.05357 15.1957 2.92893 17.0711C3.85752 17.9997 4.95991 18.7362 6.17316 19.2388C7.38642 19.7413 8.68678 20 10 20V20ZM10 18C9.70333 18 9.41332 17.912 9.16664 17.7472C8.91997 17.5824 8.72771 17.3481 8.61418 17.074C8.50065 16.7999 8.47094 16.4983 8.52882 16.2074C8.5867 15.9164 8.72956 15.6491 8.93934 15.4393C9.14912 15.2296 9.41639 15.0867 9.70736 15.0288C9.99833 14.9709 10.2999 15.0007 10.574 15.1142C10.8481 15.2277 11.0824 15.42 11.2472 15.6666C11.412 15.9133 11.5 16.2033 11.5 16.5C11.5 16.8978 11.342 17.2794 11.0607 17.5607C10.7794 17.842 10.3978 18 10 18ZM6 6.994C5.98526 6.22572 6.19739 5.47015 6.60987 4.82182C7.02235 4.17349 7.61685 3.66119 8.319 3.349C8.94163 3.07093 9.62427 2.95411 10.3039 3.00934C10.9836 3.06457 11.6384 3.29005 12.208 3.665C12.7332 4.01273 13.1689 4.47957 13.4795 5.02753C13.7902 5.57548 13.967 6.18905 13.9957 6.81829C14.0243 7.44752 13.904 8.07463 13.6444 8.64855C13.3849 9.22247 12.9934 9.72698 12.502 10.121C11.8128 10.6521 11.3171 11.3948 11.091 12.235C11.0287 12.4928 10.8665 12.7153 10.6401 12.8535C10.4138 12.9917 10.1418 13.0343 9.884 12.972C9.62621 12.9097 9.40373 12.7475 9.26552 12.5211C9.1273 12.2948 9.08467 12.0228 9.147 11.765C9.47251 10.4949 10.2113 9.36908 11.247 8.565C11.4932 8.3681 11.6893 8.1158 11.8194 7.82869C11.9495 7.54157 12.0099 7.22776 11.9957 6.91286C11.9814 6.59796 11.893 6.29088 11.7375 6.01667C11.582 5.74247 11.3639 5.50889 11.101 5.335C10.8065 5.14221 10.4674 5.02812 10.1162 5.00361C9.76506 4.9791 9.41347 5.04499 9.095 5.195C8.75731 5.35664 8.47369 5.61267 8.27847 5.93212C8.08325 6.25158 7.98479 6.62076 7.995 6.995C7.97776 7.24741 7.8655 7.4839 7.68083 7.65682C7.49617 7.82974 7.25282 7.92624 6.99983 7.92688C6.74684 7.92751 6.50301 7.83223 6.31748 7.66024C6.13194 7.48824 6.0185 7.25232 6 7V6.994Z" fill="white"/>
</svg>
