<svg width="22" height="21" viewBox="0 0 22 21" fill="none" xmlns="http://www.w3.org/2000/svg">
<path d="M6.19805 12.0413L2.8012 8.74344L7.52361 8.05579L8.45279 7.92049L8.86547 7.07705L10.9502 2.81622L13.063 7.07502L13.4775 7.9106L14.4005 8.045L19.1229 8.73265L15.7261 12.0306L15.0485 12.6884L15.2136 13.6183L16.0483 18.3176L11.7711 16.0783L10.9459 15.6463L10.1206 16.0783L5.88125 18.2978L6.7105 13.6291L6.87566 12.6992L6.19805 12.0413ZM5.63171 19.7027L5.63171 19.7027L5.63171 19.7027ZM1.36853 8.95206L1.37334 8.95136L1.36853 8.95205L1.36853 8.95206ZM4.94204 19.5802L4.94198 19.5802L4.94204 19.5802Z" fill="#FFC524" stroke="#FFC524" stroke-width="3.55859"/>
</svg>
