<svg width="39" height="39" viewBox="0 0 39 39" fill="none" xmlns="http://www.w3.org/2000/svg">
<path fill-rule="evenodd" clip-rule="evenodd" d="M25.6323 13.7565C26.0338 14.1687 26.3977 14.6149 26.7196 15.0898C26.7909 15.1998 26.8367 15.2348 27.0046 15.1915C28.7968 14.7181 30.5907 14.2511 32.3845 13.784L32.3849 13.7839C34.1787 13.3168 35.9725 12.8498 37.7646 12.3765C38.1276 12.2815 38.2735 12.3448 38.3329 12.7098C38.3737 12.9847 38.4442 13.2546 38.5432 13.5148C38.6603 13.8098 38.5432 13.8865 38.2701 13.9565C36.6456 14.3744 35.0218 14.7953 33.3981 15.2161L33.3972 15.2164C31.5827 15.6867 29.7683 16.157 27.9529 16.6231L27.9254 16.6302C27.7009 16.688 27.5277 16.7325 27.6679 17.0465C27.7696 17.2706 27.908 17.2191 28.0371 17.1711C28.0674 17.1598 28.0972 17.1488 28.1259 17.1415C30.3877 16.5581 32.6524 15.9709 34.9198 15.3798C35.2578 15.2919 35.5959 15.2048 35.934 15.1176L35.9343 15.1175L35.9345 15.1175L35.9348 15.1174C36.7571 14.9054 37.5794 14.6935 38.399 14.4715C38.6704 14.3981 38.796 14.4181 38.8774 14.7181C38.9565 15.017 38.8147 15.0479 38.6292 15.0883C38.6078 15.093 38.5859 15.0978 38.5636 15.1031C37.6155 15.3415 36.6676 15.5807 35.7196 15.8199L35.7193 15.82L35.719 15.8201L35.7154 15.821C33.5897 16.3574 31.4638 16.8938 29.3354 17.4215C29.0046 17.5031 28.9554 17.6315 29.0436 17.9215C29.1252 18.193 29.1988 18.4666 29.2724 18.7404L29.2725 18.7406C29.3611 19.07 29.4497 19.3997 29.5525 19.7265C29.6136 19.9365 29.5678 20.0331 29.3575 20.0848C29.1988 20.1238 29.0499 20.1732 28.8996 20.223C28.8506 20.2392 28.8015 20.2555 28.7519 20.2715L28.7482 20.2727C28.3108 20.4131 28.3103 20.4133 28.1344 19.8781L27.902 21.4165C28.1191 21.3433 28.2132 21.1742 28.3037 21.0113L28.3037 21.0113L28.3037 21.0113L28.3037 21.0113C28.3349 20.9553 28.3656 20.9001 28.4007 20.8498C28.5381 20.6531 28.6179 20.6148 28.8282 20.7498C31.9133 22.7498 35.0041 24.7498 38.1005 26.7498C38.3295 26.8965 38.3312 27.0065 38.1836 27.2015C37.9865 27.4562 37.8057 27.7229 37.6425 27.9998C37.4949 28.2631 37.3643 28.2531 37.1217 28.0948C34.4075 26.3248 31.6832 24.562 28.9486 22.8065C28.8673 22.7541 28.7861 22.7012 28.705 22.6483L28.7049 22.6482L28.7048 22.6482L28.7047 22.6481C28.4916 22.5092 28.2784 22.3701 28.0598 22.2398C28.0347 22.2247 28.0073 22.2017 27.9788 22.1778L27.9788 22.1778L27.9787 22.1777C27.8816 22.0964 27.7715 22.004 27.6967 22.1715C27.6759 22.2182 27.6464 22.265 27.6168 22.3121C27.5093 22.483 27.4001 22.6565 27.6967 22.8381C28.2593 23.1934 28.8172 23.5572 29.3738 23.92C29.7101 24.1393 30.046 24.3582 30.3821 24.5748C32.4946 25.9415 34.6077 27.3054 36.7213 28.6665C36.952 28.8148 37.025 28.9148 36.857 29.1765C36.6891 29.4381 36.55 29.3531 36.3583 29.2298C33.4361 27.3354 30.5104 25.4431 27.5814 23.5531C27.5509 23.5333 27.5197 23.506 27.4876 23.478C27.3874 23.3907 27.2793 23.2963 27.1624 23.3998C27.008 23.5365 26.8452 23.7081 27.1132 23.9181C27.1887 23.9778 27.1495 24.0622 27.1122 24.1424C27.0984 24.1721 27.0849 24.2011 27.0776 24.2281C26.7781 25.2945 26.8307 26.4268 27.2278 27.462C27.6249 28.4971 28.3461 29.3818 29.2876 29.9886C30.229 30.5954 31.3421 30.8931 32.4667 30.8388C33.5913 30.7845 34.6694 30.381 35.5458 29.6865C35.6018 29.6451 35.6658 29.6155 35.734 29.5996C35.8022 29.5837 35.8729 29.5818 35.9419 29.594C36.0109 29.6062 36.0765 29.6322 36.1347 29.6705C36.193 29.7088 36.2425 29.7585 36.2803 29.8165C36.3531 29.9466 36.2667 30.0036 36.1866 30.0564L36.1865 30.0564C36.1641 30.0713 36.1421 30.0858 36.1242 30.1015C35.5664 30.5963 34.9143 30.9778 34.2056 31.2238C33.497 31.4698 32.7457 31.5755 31.9953 31.5348C30.4086 31.4813 28.9075 30.8144 27.8186 29.6793C26.7296 28.5441 26.1408 27.0325 26.1802 25.4731C26.1802 25.3447 26.1914 25.2163 26.2054 25.0562L26.2054 25.0561L26.2054 25.056C26.2125 24.9751 26.2203 24.886 26.2277 24.7848C25.3624 25.7842 24.281 26.5814 23.0623 27.1181C23.5823 27.2275 24.0928 27.3769 24.589 27.5648C26.7943 28.4848 28.1276 30.5648 28.1022 33.0215C28.071 34.1285 27.7148 35.2032 27.0765 36.116C26.4381 37.0288 25.5449 37.7409 24.5042 38.1665C24.2277 38.2748 24.0784 38.2898 23.9953 37.9531C23.9622 37.8142 23.9014 37.6751 23.8412 37.5375C23.744 37.3151 23.6485 37.0967 23.6747 36.8898C23.706 36.6425 23.9497 36.5598 24.1987 36.4752C24.3273 36.4315 24.4573 36.3874 24.5602 36.3198C25.3848 35.7825 25.9935 34.9802 26.2819 34.0503C26.5704 33.1204 26.5206 32.1209 26.1412 31.2231C25.7567 30.3338 25.0649 29.6064 24.1879 29.1691C23.3109 28.7319 22.3049 28.6129 21.3473 28.8331C20.9775 28.9181 20.8384 28.8331 20.7773 28.4998C20.7578 28.4085 20.7235 28.3172 20.6884 28.2238L20.6884 28.2237C20.6595 28.1466 20.6299 28.0679 20.6077 27.9865C20.5347 27.7098 20.3346 27.7498 20.1395 27.7998C19.9165 27.8555 19.986 27.9748 20.0455 28.0768C20.0624 28.106 20.0786 28.1337 20.0869 28.1581C20.255 28.6693 20.4288 29.1764 20.6032 29.6851C20.7438 30.0952 20.8847 30.5064 21.0233 30.9215C21.0345 30.9553 21.049 30.9894 21.0635 31.0234C21.1346 31.1902 21.2041 31.3532 20.8672 31.4598C20.5275 31.5686 20.4747 31.4035 20.411 31.2042C20.4044 31.1835 20.3977 31.1626 20.3905 31.1415C20.0762 30.2081 19.7606 29.2748 19.444 28.3415C19.3449 28.0469 19.294 27.8958 19.1889 27.8207C19.078 27.7416 18.9068 27.747 18.5551 27.7581C18.5078 27.822 18.5429 27.8708 18.5774 27.9186C18.5825 27.9257 18.5876 27.9327 18.5924 27.9398C19.3592 29.0965 19.3999 30.3231 18.8672 31.5565C18.3004 32.8706 17.7185 34.178 17.1362 35.4862L17.1361 35.4863L17.1357 35.4873L17.1357 35.4874L17.1356 35.4875L17.1356 35.4877C16.7056 36.4537 16.2754 37.4201 15.8511 38.3898C15.7341 38.6598 15.6085 38.6631 15.3795 38.5565C15.1081 38.4109 14.8243 38.2888 14.5313 38.1915C14.1921 38.0915 14.2277 37.9348 14.343 37.6781C14.9513 36.3251 15.5542 34.97 16.1572 33.6147L16.1572 33.6146L16.1572 33.6146L16.1572 33.6145C16.5094 32.823 16.8616 32.0313 17.215 31.2398C17.4139 30.8402 17.5172 30.4013 17.5169 29.9565C17.5209 29.6404 17.4425 29.3285 17.2893 29.0506C17.1361 28.7726 16.9132 28.5377 16.6416 28.3681C16.4143 28.2215 16.338 28.1248 16.472 27.8548C16.7722 27.2215 16.7536 27.2115 16.0581 26.9965C15.2794 26.7565 14.5788 26.9548 13.9291 27.3831C13.3005 27.8159 12.8131 28.4186 12.5263 29.1181L12.0607 30.1664C11.2522 31.9867 10.4408 33.8136 9.64245 35.6381L9.63093 35.664C9.53773 35.8733 9.47564 36.0127 9.16917 35.8781C8.85761 35.7414 8.9249 35.5982 9.02149 35.3928L9.02837 35.3781C9.50072 34.3217 9.97027 33.2636 10.4399 32.2053L10.44 32.2053L10.44 32.2052L10.4404 32.2043L10.4407 32.2035L10.4408 32.2035L10.4408 32.2035C10.9407 31.077 11.4407 29.9502 11.9444 28.8248C12.5449 27.4915 13.4236 26.7198 14.8282 26.2981C14.7423 26.1448 14.6081 26.0478 14.4739 25.9507C14.4068 25.9022 14.3397 25.8537 14.2786 25.7981C14.1383 25.6705 14.0477 25.7667 13.9635 25.8562C13.9377 25.8835 13.9126 25.9103 13.8867 25.9298C11.9642 27.3743 10.0462 28.8187 8.1327 30.2631C7.90315 30.4362 7.67255 30.608 7.44198 30.7798L7.44193 30.7798L7.44188 30.7799L7.44171 30.78C6.89538 31.187 6.34915 31.5939 5.81718 32.0181C5.54407 32.2365 5.41005 32.1848 5.24042 31.9281C5.09295 31.693 4.92251 31.4725 4.73151 31.2698C4.48385 31.0181 4.56188 30.8781 4.82142 30.6915C7.46321 28.7148 10.0976 26.7298 12.7247 24.7365C12.75 24.7176 12.7833 24.7017 12.818 24.6852C12.93 24.632 13.0562 24.572 12.9707 24.3798C12.8265 24.0465 12.6654 24.1431 12.438 24.3148C9.83245 26.2681 7.23363 28.2187 4.64161 30.1665C4.55777 30.2189 4.47886 30.2786 4.40581 30.3448C4.19447 30.5737 4.07945 30.4449 3.92462 30.2716L3.91557 30.2615C3.72049 30.0431 3.82566 29.9498 4.00717 29.8131C6.67949 27.8065 9.34729 25.7959 12.0106 23.7815C12.0414 23.758 12.0786 23.7377 12.1165 23.717C12.2451 23.6467 12.3817 23.572 12.3057 23.3531C12.2082 23.0724 12.0191 23.0698 11.7781 23.0666L11.7714 23.0665C10.2177 23.0415 8.6637 23.0147 7.10966 22.9879L7.10771 22.9878C5.03307 22.952 2.95835 22.9162 0.884185 22.8848C0.605983 22.8848 0.509291 22.7981 0.531343 22.5265C0.557628 22.2221 0.561029 21.9163 0.541521 21.6115C0.519469 21.3115 0.636518 21.2381 0.926594 21.2448C2.35662 21.2748 3.78664 21.2964 5.21667 21.3179C5.69335 21.3251 6.17002 21.3323 6.6467 21.3398C6.99349 21.3456 7.3402 21.3517 7.68685 21.3577C8.83747 21.3778 9.98755 21.3979 11.1386 21.4081C11.1693 21.4081 11.2081 21.4162 11.2494 21.4247C11.3883 21.4535 11.5556 21.4882 11.5373 21.2415C11.5353 21.2153 11.534 21.1884 11.5326 21.1612C11.5216 20.9361 11.5097 20.694 11.0979 20.7015C10.4079 20.7139 9.71785 20.6957 9.02781 20.6775C8.70004 20.6688 8.37226 20.6602 8.04449 20.6548L1.22176 20.5448C1.15136 20.5448 1.08096 20.5377 1.01056 20.5306L1.01051 20.5306C0.940127 20.5236 0.869747 20.5165 0.799367 20.5165C0.556212 20.5165 0.563219 20.3789 0.57017 20.2425C0.572142 20.2038 0.574109 20.1652 0.57036 20.1298C0.550004 19.9265 0.651785 19.8698 0.848562 19.8748C2.13601 19.9004 3.42347 19.9249 4.71092 19.9493C6.77037 19.9883 8.82982 20.0274 10.8893 20.0715C11.2438 20.0715 11.3829 20.0265 11.3982 19.6148C11.4643 18.3748 10.7604 17.5381 9.91557 16.8065C9.26167 16.2397 8.47554 15.8402 7.62688 15.6435C6.77822 15.4467 5.89326 15.4588 5.05046 15.6785C4.20767 15.8982 3.43308 16.3189 2.79539 16.9032C2.1577 17.4875 1.67661 18.2174 1.39479 19.0281C1.26895 19.3929 1.04778 19.3691 0.80817 19.3433L0.808083 19.3433C0.786088 19.341 0.763937 19.3386 0.741691 19.3365C0.530697 19.3165 0.586065 19.1949 0.633514 19.0906L0.633518 19.0906L0.633527 19.0906C0.645584 19.0641 0.657128 19.0388 0.663659 19.0165C1.24212 17.1298 2.49063 15.8498 4.3634 15.1831C6.99614 14.2531 9.77986 15.1565 11.4033 17.4148C11.436 17.4601 11.4731 17.5037 11.5078 17.5444L11.5078 17.5445C11.5216 17.5606 11.5349 17.5763 11.5475 17.5915C11.6254 17.572 11.6323 17.5283 11.6388 17.4879C11.6407 17.4764 11.6425 17.4652 11.6458 17.4548C11.889 16.6452 11.8884 16.6448 11.2158 16.1549L11.2065 16.1481L3.23363 10.3665C2.98427 10.1865 2.89436 10.0565 3.13694 9.80314C3.2431 9.69579 3.32926 9.54982 3.41373 9.40674C3.56006 9.15884 3.70129 8.9196 3.93253 8.9048C4.15765 8.89179 4.39899 9.10289 4.63778 9.31175C4.73547 9.3972 4.83274 9.48227 4.92829 9.55147C7.40723 11.3459 9.88503 13.1426 12.3617 14.9415C12.3875 14.9595 12.4124 14.979 12.4368 14.9981L12.4368 14.9981L12.4368 14.9981C12.573 15.1048 12.6928 15.1987 12.8553 14.9415C12.9931 14.7208 12.8758 14.6404 12.7507 14.5546C12.7341 14.5432 12.7173 14.5317 12.701 14.5198C11.5882 13.7098 10.4737 12.9026 9.35747 12.0981L8.66717 11.5955L8.667 11.5954C7.2955 10.5967 5.92665 9.59985 4.54661 8.61647C4.2718 8.42147 4.25823 8.29314 4.46179 8.03814C4.96544 7.41135 5.43752 6.7666 5.91092 6.12005L5.92575 6.09981C6.07502 5.89481 6.17172 5.78147 6.44653 5.97814C6.72167 6.17253 6.61933 6.3005 6.49246 6.45914L6.49245 6.45915C6.4801 6.47461 6.46751 6.49035 6.45501 6.50647C6.3021 6.70747 6.15092 6.91016 5.99968 7.11291L5.99965 7.11297L5.99956 7.11308L5.99954 7.1131C5.78339 7.40289 5.56713 7.69282 5.34559 7.97814C5.21328 8.1448 5.17596 8.25314 5.38291 8.40647C6.53869 9.22981 7.68713 10.0631 8.82821 10.9065C8.99784 11.0365 9.1115 11.0348 9.23024 10.8465C9.30302 10.731 9.38217 10.6319 9.46027 10.5341L9.4603 10.534L9.46039 10.5339L9.46049 10.5338C9.50975 10.4721 9.55858 10.4109 9.60513 10.3465L9.61293 10.3357C9.72941 10.1742 9.81747 10.0522 10.0598 10.2348C10.3074 10.4215 10.2803 10.5165 10.1191 10.7248C9.56668 11.4441 9.57458 11.4498 10.3086 11.9815L10.3108 11.9831C10.5615 12.1645 10.8125 12.3453 11.0634 12.5261C11.7581 13.0267 12.4524 13.5271 13.1403 14.0365C13.3371 14.1815 13.4423 14.1865 13.6255 14.0048C14.0648 13.5292 14.4728 13.0265 14.8469 12.4998C14.8609 12.4817 14.8761 12.4588 14.8923 12.4345C14.9564 12.3381 15.0349 12.2199 15.1081 12.2931C15.4243 12.5825 15.6638 12.4366 15.9021 12.2915C16 12.2318 16.0978 12.1723 16.2006 12.1431C16.3135 12.0963 16.4224 12.0405 16.5263 11.9765L16.3859 11.9373C16.245 11.8979 16.1312 11.8661 16.0173 11.8381C13.6068 11.2348 11.8019 9.12481 11.6543 6.73481C11.4949 4.15314 12.9673 1.83981 15.332 0.918141C15.656 0.791474 15.7816 0.856471 15.8613 1.1748C15.8929 1.30263 15.9466 1.43111 15.9999 1.55848L16 1.5585C16.0926 1.77989 16.1838 1.99789 16.1548 2.20314C16.1208 2.44365 15.8808 2.522 15.6367 2.60168C15.5155 2.64126 15.3932 2.68118 15.2947 2.74147C14.4499 3.26276 13.8176 4.05834 13.5077 4.99003C13.1978 5.92171 13.2299 6.93061 13.5983 7.84147C13.9739 8.74239 14.6622 9.48346 15.541 9.93319C16.4198 10.3829 17.4324 10.5122 18.399 10.2981C18.7095 10.2298 18.8401 10.2798 18.9079 10.5748C18.9308 10.6756 18.9665 10.774 19.0021 10.8723C19.0377 10.9706 19.0733 11.069 19.0962 11.1698C19.1612 11.4531 19.3555 11.4098 19.5473 11.3671L19.5576 11.3648C19.7856 11.3133 19.7161 11.1923 19.6578 11.0907C19.6406 11.0607 19.6243 11.0324 19.617 11.0081C19.3151 10.0415 19.0063 9.07647 18.6806 8.11647C18.606 7.89481 18.5924 7.76647 18.8655 7.69147C19.1047 7.62647 19.237 7.61814 19.3252 7.90647C19.4895 8.44819 19.6649 8.98717 19.8403 9.52605L19.8403 9.52608L19.8403 9.52611L19.8403 9.52616C20 10.0168 20.1596 10.5074 20.3108 10.9998C20.3973 11.2831 20.511 11.4331 20.8401 11.4548C21.2395 11.5027 21.6359 11.5722 22.0275 11.6631C21.9991 11.5292 21.9176 11.4441 21.8398 11.3628C21.8063 11.3279 21.7735 11.2936 21.7459 11.2565C20.3227 9.35981 20.0343 7.3048 21.0911 5.18647C22.148 3.06814 23.9749 2.01981 26.3702 1.94481C27.2525 1.93224 28.1251 2.1277 28.9147 2.51481C29.1183 2.60814 29.2201 2.70814 29.0538 2.9148C29.0466 2.92651 29.0404 2.93877 29.0352 2.95147C28.9747 3.05574 28.9218 3.17126 28.8688 3.28711L28.8688 3.28714C28.7523 3.54166 28.6351 3.79779 28.4346 3.93981C28.2402 4.07756 28.0035 3.95763 27.7638 3.83617C27.6439 3.77541 27.5232 3.71426 27.4067 3.6848C26.4435 3.45374 25.4287 3.55822 24.5352 3.98041C23.6418 4.4026 22.9251 5.11633 22.5076 5.99981C22.0997 6.88749 22.0268 7.88884 22.3019 8.82454C22.5769 9.76024 23.1821 10.5692 24.0089 11.1065C24.2718 11.2815 24.3244 11.4081 24.1412 11.6548C24.0329 11.8144 23.9365 11.9815 23.8528 12.1548C23.8454 12.1691 23.836 12.1839 23.8264 12.1992L23.8264 12.1992C23.7832 12.2677 23.7352 12.3438 23.8392 12.4065C23.8726 12.4266 23.9049 12.4532 23.9364 12.4792C24.0252 12.5523 24.1088 12.6212 24.1989 12.5315C24.3348 12.3979 24.4304 12.4527 24.5285 12.5089C24.5528 12.5229 24.5773 12.5369 24.6026 12.5481C28.1005 14.1181 31.9749 11.7948 32.0513 8.02314C32.0886 6.17981 31.2387 4.71314 29.6764 3.6698C29.6483 3.65116 29.6157 3.63504 29.5828 3.6188C29.4512 3.55371 29.3154 3.48655 29.4457 3.24647C29.595 2.97147 29.7052 2.90314 30.0004 3.08814C31.0678 3.75233 31.8883 4.73736 32.34 5.89666C32.7917 7.05595 32.8504 8.32755 32.5073 9.52224C32.1641 10.7169 31.4376 11.7708 30.4357 12.5272C29.4339 13.2835 28.2103 13.7018 26.9469 13.7198C26.696 13.7198 26.4442 13.6953 26.1921 13.6708C26.0779 13.6597 25.9637 13.6486 25.8494 13.6398C25.8228 13.6415 25.7942 13.6368 25.7668 13.6323C25.6878 13.6194 25.6184 13.608 25.6323 13.7565ZM19.7329 22.0334C17.9738 22.02 16.2197 21.9017 14.5573 21.3083C12.273 20.4922 12.286 20.4178 12.654 18.3188L12.6777 18.1833C13.3037 14.6133 16.9916 12.0383 20.5997 12.545C20.9476 12.6051 21.2635 12.7818 21.4937 13.045C22.3147 13.87 22.7795 14.89 23.1069 15.9783C23.6087 17.7176 23.746 19.5388 23.5106 21.3317C23.5131 21.3858 23.5046 21.4398 23.4856 21.4906C23.4665 21.5414 23.4374 21.588 23.3998 21.6276C23.3621 21.6672 23.3169 21.699 23.2666 21.7212C23.2163 21.7433 23.162 21.7554 23.1069 21.7567C21.9911 21.9338 20.8631 22.0263 19.7329 22.0334ZM21.5399 22.5218C18.5255 22.7202 15.562 22.5768 12.7392 21.1885C12.7455 21.2824 12.7568 21.3758 12.7731 21.4685C13.6383 24.7302 17.0242 27.0102 20.4475 26.6468C20.8139 26.616 21.1566 26.4562 21.4127 26.1968C22.4491 25.1885 22.9394 23.9185 23.2787 22.5735C23.3363 22.3518 23.2617 22.3118 23.0514 22.3418C22.9751 22.3525 22.8988 22.3633 22.8225 22.3741C22.397 22.4346 21.9715 22.495 21.5399 22.5218ZM22.214 12.9471C23.0083 13.211 23.7425 13.6249 24.3752 14.1654C26.1106 15.6421 26.9638 17.5154 26.9519 19.7738C26.9621 19.938 26.9256 20.1019 26.8465 20.247C26.7674 20.392 26.6489 20.5127 26.5041 20.5954C25.865 20.9774 25.1747 21.2697 24.4532 21.4638C24.1682 21.5488 24.0698 21.4971 24.1139 21.1888C24.2369 20.1411 24.2369 19.0831 24.1139 18.0354C23.9002 16.2338 23.4269 14.5271 22.214 12.9471ZM22.2725 26.1507C24.186 25.694 26.3641 23.404 26.7306 21.1507C25.9732 21.5884 25.1506 21.9067 24.2929 22.094C24.1843 22.1081 24.0838 22.1583 24.0082 22.2362C23.9326 22.3141 23.8864 22.4151 23.8773 22.5224C23.6307 23.8361 23.0818 25.0772 22.2725 26.1507Z" fill="white"/>
</svg>
