<svg width="32" height="24" viewBox="0 0 32 24" fill="none" xmlns="http://www.w3.org/2000/svg">
<g clip-path="url(#clip0_2428_10369)">
<path d="M31.2146 5.22696C28.1635 5.22696 25.3322 4.0301 23.5651 2.05234C21.7666 4.03403 18.9628 5.22696 15.998 5.22696C13.0333 5.22696 10.1117 4.0301 8.34851 2.05234C6.55393 4.0301 3.75015 5.22696 0.785372 5.22696C0.353418 5.22696 0 4.87379 0 4.44214C0 4.01048 0.353418 3.65731 0.785372 3.65731C3.63235 3.65731 6.28691 2.38589 7.71628 0.333569C7.8655 0.121666 8.09326 1.78833e-05 8.36814 -0.00390625C8.62732 -0.00390625 8.87078 0.129514 9.01215 0.345342C10.3826 2.38589 13.0607 3.65731 15.998 3.65731C18.9353 3.65731 21.5035 2.38589 22.9329 0.337493C23.0821 0.12559 23.3256 0.00394202 23.5847 1.78833e-05C23.8439 1.78833e-05 24.0874 0.133438 24.2287 0.349266C25.5992 2.38982 28.2773 3.66123 31.2146 3.66123C31.6466 3.66123 32 4.01441 32 4.44606C32 4.87772 31.6466 5.23089 31.2146 5.23089V5.22696Z" fill="white"/>
<path d="M31.2147 14.6129C28.1635 14.6129 25.3322 13.4161 23.5651 11.4344C21.7666 13.4161 18.9628 14.6129 15.9981 14.6129C13.0333 14.6129 10.1156 13.4161 8.34853 11.4344C6.55003 13.4161 3.74625 14.6129 0.781466 14.6129C0.349511 14.6129 -0.00390625 14.2597 -0.00390625 13.8281C-0.00390625 13.3964 0.349511 13.0433 0.781466 13.0433C3.62844 13.0433 6.283 11.7718 7.71238 9.71952C7.8616 9.50762 8.08936 9.36635 8.36424 9.38205C8.62341 9.38205 8.86688 9.51547 9.00824 9.7313C10.3787 11.7718 13.0568 13.0433 15.9941 13.0433C18.9314 13.0433 21.4957 11.7718 22.925 9.71952C23.0743 9.50762 23.3177 9.36635 23.5769 9.38205C23.8361 9.38205 24.0795 9.51547 24.2209 9.7313C25.5914 11.7718 28.2695 13.0433 31.2068 13.0433C31.6388 13.0433 31.9922 13.3964 31.9922 13.8281C31.9922 14.2597 31.6388 14.6129 31.2068 14.6129H31.2147Z" fill="white"/>
<path d="M31.2147 24.0007C28.1635 24.0007 25.3322 22.8039 23.5651 20.8222C21.7666 22.8039 18.9628 24.0007 15.9981 24.0007C13.0333 24.0007 10.1156 22.8039 8.34853 20.8222C6.55003 22.8039 3.74625 24.0007 0.781466 24.0007C0.349511 24.0007 -0.00390625 23.6476 -0.00390625 23.2159C-0.00390625 22.7842 0.349511 22.4311 0.781466 22.4311C3.62844 22.4311 6.283 21.1597 7.71238 19.1073C7.8616 18.8954 8.08936 18.762 8.36424 18.7699C8.62341 18.7699 8.86688 18.9033 9.00824 19.1191C10.3787 21.1597 13.0568 22.4311 15.9941 22.4311C18.9314 22.4311 21.4957 21.1597 22.925 19.1073C23.0743 18.8954 23.3177 18.762 23.5769 18.7699C23.8361 18.7699 24.0795 18.9033 24.2209 19.1191C25.5914 21.1597 28.2695 22.4311 31.2068 22.4311C31.6388 22.4311 31.9922 22.7842 31.9922 23.2159C31.9922 23.6476 31.6388 24.0007 31.2068 24.0007H31.2147Z" fill="white"/>
</g>
<defs>
<clipPath id="clip0_2428_10369">
<rect width="32" height="24" fill="white"/>
</clipPath>
</defs>
</svg>
