<svg width="12" height="16" viewBox="0 0 12 16" fill="none" xmlns="http://www.w3.org/2000/svg">
<path d="M6 7.80469C7.89375 7.80469 9.42857 6.12598 9.42857 4.05469C9.42857 1.9834 7.89375 0.304688 6 0.304688C4.10625 0.304688 2.57143 1.9834 2.57143 4.05469C2.57143 6.12598 4.10625 7.80469 6 7.80469ZM8.4 8.74219H7.95268C7.35804 9.04102 6.69643 9.21094 6 9.21094C5.30357 9.21094 4.64464 9.04102 4.04732 8.74219H3.6C1.6125 8.74219 0 10.5059 0 12.6797V13.8984C0 14.6748 0.575893 15.3047 1.28571 15.3047H10.7143C11.4241 15.3047 12 14.6748 12 13.8984V12.6797C12 10.5059 10.3875 8.74219 8.4 8.74219Z" fill="#7A5F1B"/>
</svg>
