<svg width="109" height="30" viewBox="0 0 109 30" fill="none" xmlns="http://www.w3.org/2000/svg">
<path d="M4.6186 0.858565V25.0084H12.8933V29H0.371869V0.858565H4.6186ZM14.3515 14.8017C14.3515 10.8405 15.8035 7.43827 18.7075 4.59496C21.5995 1.75165 25.0746 0.330002 29.133 0.330002C33.1428 0.330002 36.5815 1.76381 39.4491 4.63141C42.3289 7.49902 43.7687 10.9438 43.7687 14.9657C43.7687 19.012 42.3228 22.4446 39.4309 25.2636C36.5268 28.0948 33.0213 29.5103 28.9143 29.5103C25.2812 29.5103 22.0187 28.2527 19.1267 25.7375C15.9432 22.9549 14.3515 19.3097 14.3515 14.8017ZM18.6346 14.8564C18.6346 17.967 19.6796 20.5248 21.7696 22.5297C23.8474 24.5346 26.2472 25.537 28.969 25.537C31.9216 25.537 34.4126 24.5163 36.4418 22.475C38.4709 20.4093 39.4855 17.8941 39.4855 14.9293C39.4855 11.928 38.4831 9.41278 36.4782 7.38359C34.4855 5.34224 32.0188 4.32157 29.0783 4.32157C26.15 4.32157 23.6773 5.34224 21.6602 7.38359C19.6432 9.40063 18.6346 11.8916 18.6346 14.8564ZM63.5807 14.346H75.2091V15.2756C75.2091 17.3898 74.96 19.2611 74.4619 20.8893C73.9758 22.396 73.1556 23.8055 72.0013 25.1178C69.3889 28.0583 66.0656 29.5286 62.0315 29.5286C58.0946 29.5286 54.7227 28.1069 51.9159 25.2636C49.109 22.4081 47.7056 18.9816 47.7056 14.984C47.7056 10.9013 49.1333 7.43827 51.9888 4.59496C54.8443 1.7395 58.3194 0.311775 62.4143 0.311775C64.6136 0.311775 66.6671 0.761358 68.5748 1.66052C70.3974 2.55969 72.1896 4.01779 73.9515 6.03484L70.9259 8.93282C68.6173 5.85865 65.8044 4.32157 62.4872 4.32157C59.5102 4.32157 57.0132 5.34831 54.9961 7.40181C52.9791 9.41886 51.9706 11.9462 51.9706 14.984C51.9706 18.1189 53.0945 20.7009 55.3424 22.7301C57.4445 24.6135 59.7228 25.5552 62.1773 25.5552C64.2673 25.5552 66.1446 24.8505 67.8092 23.441C69.4739 22.0193 70.4035 20.3182 70.5979 18.3376H63.5807V14.346ZM79.1642 14.8017C79.1642 10.8405 80.6163 7.43827 83.5203 4.59496C86.4122 1.75165 89.8874 0.330002 93.9458 0.330002C97.9556 0.330002 101.394 1.76381 104.262 4.63141C107.142 7.49902 108.582 10.9438 108.582 14.9657C108.582 19.012 107.136 22.4446 104.244 25.2636C101.34 28.0948 97.8341 29.5103 93.7271 29.5103C90.094 29.5103 86.8314 28.2527 83.9395 25.7375C80.756 22.9549 79.1642 19.3097 79.1642 14.8017ZM83.4474 14.8564C83.4474 17.967 84.4924 20.5248 86.5824 22.5297C88.6602 24.5346 91.06 25.537 93.7818 25.537C96.7344 25.537 99.2253 24.5163 101.255 22.475C103.284 20.4093 104.298 17.8941 104.298 14.9293C104.298 11.928 103.296 9.41278 101.291 7.38359C99.2982 5.34224 96.8316 4.32157 93.8911 4.32157C90.9627 4.32157 88.49 5.34224 86.473 7.38359C84.456 9.40063 83.4474 11.8916 83.4474 14.8564Z" fill="black"/>
</svg>
