<svg width="54" height="27" viewBox="0 0 54 27" fill="none" xmlns="http://www.w3.org/2000/svg">
<path d="M0.9135 0.799998H4.8735V22.4H11.3895V26H0.9135V0.799998ZM18.8719 26.36C16.9279 26.36 15.4399 25.808 14.4079 24.704C13.3759 23.6 12.8599 22.04 12.8599 20.024V6.776C12.8599 4.76 13.3759 3.2 14.4079 2.096C15.4399 0.991999 16.9279 0.439999 18.8719 0.439999C20.8159 0.439999 22.3039 0.991999 23.3359 2.096C24.3679 3.2 24.8839 4.76 24.8839 6.776V20.024C24.8839 22.04 24.3679 23.6 23.3359 24.704C22.3039 25.808 20.8159 26.36 18.8719 26.36ZM18.8719 22.76C20.2399 22.76 20.9239 21.932 20.9239 20.276V6.524C20.9239 4.868 20.2399 4.04 18.8719 4.04C17.5039 4.04 16.8199 4.868 16.8199 6.524V20.276C16.8199 21.932 17.5039 22.76 18.8719 22.76ZM33.1779 26.36C31.2579 26.36 29.7939 25.82 28.7859 24.74C27.7779 23.636 27.2739 22.064 27.2739 20.024V6.776C27.2739 4.736 27.7779 3.176 28.7859 2.096C29.7939 0.991999 31.2579 0.439999 33.1779 0.439999C35.0979 0.439999 36.5619 0.991999 37.5699 2.096C38.5779 3.176 39.0819 4.736 39.0819 6.776V8.936H35.3379V6.524C35.3379 4.868 34.6539 4.04 33.2859 4.04C31.9179 4.04 31.2339 4.868 31.2339 6.524V20.312C31.2339 21.944 31.9179 22.76 33.2859 22.76C34.6539 22.76 35.3379 21.944 35.3379 20.312V15.38H33.3579V11.78H39.0819V20.024C39.0819 22.064 38.5779 23.636 37.5699 24.74C36.5619 25.82 35.0979 26.36 33.1779 26.36ZM47.3484 26.36C45.4044 26.36 43.9164 25.808 42.8844 24.704C41.8524 23.6 41.3364 22.04 41.3364 20.024V6.776C41.3364 4.76 41.8524 3.2 42.8844 2.096C43.9164 0.991999 45.4044 0.439999 47.3484 0.439999C49.2924 0.439999 50.7804 0.991999 51.8124 2.096C52.8444 3.2 53.3604 4.76 53.3604 6.776V20.024C53.3604 22.04 52.8444 23.6 51.8124 24.704C50.7804 25.808 49.2924 26.36 47.3484 26.36ZM47.3484 22.76C48.7164 22.76 49.4004 21.932 49.4004 20.276V6.524C49.4004 4.868 48.7164 4.04 47.3484 4.04C45.9804 4.04 45.2964 4.868 45.2964 6.524V20.276C45.2964 21.932 45.9804 22.76 47.3484 22.76Z" fill="white"/>
</svg>
